<?xml version="1.0" encoding="UTF-8" standalone="no"?>
<!DOCTYPE svg PUBLIC "-//W3C//DTD SVG 1.1//EN" "http://www.w3.org/Graphics/SVG/1.1/DTD/svg11.dtd">
<svg width="100%" height="100%" viewBox="0 0 2845 2845" version="1.1" xmlns="http://www.w3.org/2000/svg" xmlns:xlink="http://www.w3.org/1999/xlink" xml:space="preserve" xmlns:serif="http://www.serif.com/" style="fill-rule:evenodd;clip-rule:evenodd;stroke-linejoin:round;stroke-miterlimit:2;">
    <g transform="matrix(5.55556,0,0,5.55556,-3730.56,-3038.19)">
        <g id="Artboard5" transform="matrix(1,0,0,1,3046.11,1040.01)">
            <rect x="-2374.61" y="-493.134" width="512" height="512" style="fill:none;"/>
            <clipPath id="_clip1">
                <rect x="-2374.61" y="-493.134" width="512" height="512"/>
            </clipPath>
            <g clip-path="url(#_clip1)">
                <g transform="matrix(2.40781,0,0,2.40781,-5601.86,3364.27)">
                    <path d="M1363.21,-1454.25L1364.95,-1454.25C1364.95,-1454.25 1376.77,-1404.75 1417.51,-1393.71C1417.51,-1393.71 1445.82,-1386.79 1444.62,-1414.19C1444.62,-1414.2 1444.62,-1414.2 1444.62,-1414.21C1444.61,-1414.72 1444.13,-1427.3 1421.78,-1434.25C1402.48,-1440.25 1364.61,-1451.7 1364.91,-1484.69C1365.05,-1497.23 1370.67,-1509.08 1380.31,-1517.11C1392.78,-1527.53 1415.98,-1538.75 1450.88,-1524.34C1452.86,-1523.53 1455.03,-1523.32 1457.12,-1523.77C1459.93,-1524.35 1463.05,-1526.05 1462.95,-1530.68C1462.95,-1530.71 1462.94,-1530.73 1462.94,-1530.75C1462.94,-1530.77 1462.94,-1576.51 1462.94,-1576.53C1462.94,-1576.63 1462.95,-1576.72 1462.96,-1576.82C1463.08,-1579.01 1462.95,-1592.89 1442.02,-1595.59C1437.91,-1596.15 1433.73,-1595.89 1429.73,-1594.81C1423.64,-1593.2 1414.32,-1589.86 1413.17,-1584.53C1413.17,-1584.53 1428.75,-1587.61 1436.68,-1570.84C1444.62,-1554.07 1426.66,-1532.29 1403.53,-1539.23C1380.4,-1546.17 1388.16,-1576.53 1398.71,-1586.84C1410.16,-1598.04 1421.45,-1603.03 1454.8,-1601.88C1485.02,-1600.83 1503.53,-1587.9 1508.74,-1572.01C1509.51,-1569.68 1509.91,-1567.24 1509.91,-1564.78C1509.93,-1550.83 1509.93,-1475.3 1509.93,-1475.28C1509.93,-1475.09 1509.92,-1474.9 1509.91,-1474.71C1509.8,-1472.88 1510.03,-1467.37 1515.69,-1467.88C1522.48,-1468.5 1528.15,-1483.43 1527.54,-1499.34L1529.88,-1499.34C1529.88,-1499.34 1533.21,-1465.29 1512.36,-1462.33C1491.52,-1459.37 1478.14,-1463.44 1470.54,-1473.43C1462.94,-1483.43 1462.97,-1507.66 1438.12,-1523.52C1415.31,-1538.07 1401.88,-1519.17 1401.88,-1510.16C1401.88,-1506.75 1402.45,-1503.19 1405.38,-1499.34C1408.69,-1495 1415.22,-1490.31 1431.76,-1485.1C1462.94,-1475.28 1474.35,-1470.48 1478.79,-1445.23C1483.22,-1419.98 1467.31,-1404.17 1461.05,-1400.7C1454.94,-1397.31 1435.43,-1382.76 1404.03,-1392.98C1402.67,-1393.42 1401.35,-1393.98 1400.08,-1394.63C1394.02,-1397.65 1374.1,-1406.16 1364.95,-1393.71L1363.21,-1393.71L1363.21,-1454.25Z" style="fill:rgb(255,108,193);"/>
                </g>
            </g>
        </g>
    </g>
</svg>
